<?xml version="1.0" encoding="UTF-8" standalone="no"?>
<svg
   xmlns:dc="http://purl.org/dc/elements/1.1/"
   xmlns:cc="http://creativecommons.org/ns#"
   xmlns:rdf="http://www.w3.org/1999/02/22-rdf-syntax-ns#"
   xmlns:svg="http://www.w3.org/2000/svg"
   xmlns="http://www.w3.org/2000/svg"
   xmlns:sodipodi="http://sodipodi.sourceforge.net/DTD/sodipodi-0.dtd"
   xmlns:inkscape="http://www.inkscape.org/namespaces/inkscape"
   inkscape:version="1.0 (4035a4f, 2020-05-01)"
   sodipodi:docname="SolSea_Logo.svg"
   id="svg941"
   version="1.1"
   fill="none"
   viewBox="0 0 29.317738 29.372356"
   height="29.372356"
   width="29.317738">
  <metadata
     id="metadata945">
    <rdf:RDF>
      <cc:Work
         rdf:about="">
        <dc:format>image/svg+xml</dc:format>
        <dc:type
           rdf:resource="http://purl.org/dc/dcmitype/StillImage" />
      </cc:Work>
    </rdf:RDF>
  </metadata>
  <sodipodi:namedview
     inkscape:current-layer="svg941"
     inkscape:window-maximized="0"
     inkscape:window-y="0"
     inkscape:window-x="0"
     inkscape:cy="21.763839"
     inkscape:cx="36.084445"
     inkscape:zoom="5.96"
     showgrid="false"
     id="namedview943"
     inkscape:window-height="900"
     inkscape:window-width="1440"
     inkscape:pageshadow="2"
     inkscape:pageopacity="0"
     guidetolerance="10"
     gridtolerance="10"
     objecttolerance="10"
     borderopacity="1"
     bordercolor="#666666"
     pagecolor="#ffffff" />
  <path
     id="path833"
     fill="#1e1a6d"
     d="m 27.003908,15.220215 c 0,6.6274 -5.3726,12 -12,12 -6.6274198,0 -11.9999998,-5.3726 -11.9999998,-12 0,-6.6274204 5.37258,-12.0000004 11.9999998,-12.0000004 6.6274,0 12,5.37258 12,12.0000004 z" />
  <path
     style="fill:url(#paint0_radial)"
     id="path847"
     fill="url(#paint0_radial)"
     d="m 22.912208,24.030315 c 1.2287,-1.4251 1.9009,-3.2472 1.8924,-5.1299 0,-4.2193 -3.2749,-7.6385 -7.315,-7.6385 -1.4512,10e-5 -2.8671,0.447 -4.056,1.2801 0,0 1.9344,-2.9855004 8.0026,-2.0318 6.0682,0.9538 7.1626,5.73 6.9197,9.4398 -0.8579,2.2503 -2.2585,4.2531 -4.077,5.8299 z" />
  <path
     style="fill:url(#paint1_radial)"
     id="path849"
     fill="url(#paint1_radial)"
     d="m 24.260008,25.783415 -0.0052,0.0116 c -0.2734,0.2369 -0.5551,0.4674 -0.8506,0.6874 -2.0175,1.4987 -4.3858,2.4532 -6.8776,2.7718 -1.0761,0.1375 -2.1596,0.1545 -3.2311,0.0535 -1.4096,-0.1329 -2.9684,-1.0517 -4.2915998,-1.5875 -2.32886,-0.943 -3.92977,-2.0365 -5.5,-4 -1.57023,-1.9635 -2.59000996,-4.0183 -2.99999996,-6.5 l 5.18274996,0.7789 c 0.27922,0.5934 0.649,2.0667 1.03957,2.5934 2.50948,3.3876 6.6358798,4.5267 10.4079798,3.3781 0.573,-0.1756 1.1014,-0.4728 1.5493,-0.8715 0.4479,-0.3986 0.8047,-0.8893 1.046,-1.4385 0.2414,-0.5492 0.3617,-1.1441 0.3526,-1.744 -0.009,-0.6 -0.1471,-1.191 -0.4049,-1.7327 -0.2577,-0.5416 -0.6291,-1.0213 -1.0887,-1.4063 -0.4597,-0.3849 -0.9968,-0.6661 -1.5748,-0.8244 -0.5781,-0.1583 -1.1834,-0.1899 -1.7747,-0.0927 -0.5913,0.0972 -1.1547,0.3209 -1.6519,0.6558 0,0 2.8501,-2.3349 6.6632,-1.0169 0,0 3.6565,1.1696 4.8634,5.0667 1.2069,3.8972 -0.8537,5.2173 -0.8537,5.2173 z" />
  <path
     style="fill:url(#paint2_linear)"
     id="path851"
     fill="url(#paint2_linear)"
     d="m 28.359108,19.902715 c 0.8751,-2.3007 1.1574,-4.785 0.8208,-7.2238 -0.3366,-2.4387 -1.2813,-4.7532404 -2.7468,-6.7299804 -0.0463,-0.06211 -0.0957,-0.12001 -0.1419,-0.18106 l -2.5484,-1.30643 -8.8773,-1.58644 -0.5257,1.92016 c 1.5976,-0.05285 3.1842,0.28315 4.6236,0.97916 1.4394,0.69601 2.6887,1.73126 3.6408,3.01696 0.5175,0.69683 0.9384,1.4607304 1.2511,2.2707304 l 0.5845,0.2884 3.2811,3.2582 0.7854,3.4887 -0.1272,1.5517 z" />
  <path
     style="fill:url(#paint3_linear)"
     id="path853"
     fill="url(#paint3_linear)"
     d="m 28.355508,19.949615 c 0.4662,-1.4798 0.5811,-3.0481 0.3357,-4.5802 -0.2454,-1.532 -0.8444,-2.9857 -1.7493,-4.2452 -0.905,-1.2596004 -2.0909,-2.2904404 -3.4635,-3.0105104 -1.3726,-0.72008 -2.8941,-1.10956 -4.4434,-1.13748 -1.5494,-0.02792 -3.0838,0.30649 -4.4815,0.97664 -1.3976,0.67015 -2.6198,1.65755 -3.5694,2.8837504 -0.9496,1.2261 -1.6003998,2.6572 -1.9006998,4.1795 -0.30033,1.5222 -0.24183,3.0936 0.1708,4.5892 0.229,-2.4056 1.3561998,-4.6361 3.1563998,-6.2456 1.8001,-1.6094 4.1405,-2.4794 6.5534,-2.4359 2.4129,0.0435 4.7206,0.9972 6.4617,2.6705 1.7411,1.6733 2.7874,3.943 2.9298,6.3553 z" />
  <path
     style="fill:url(#paint4_radial)"
     id="path855"
     fill="url(#paint4_radial)"
     d="m 24.255008,25.797815 c 0.6849,-0.689 1.2211,-1.5116 1.5753,-2.4168 0.3541,-0.9052 0.5187,-1.8736 0.4836,-2.8452 -0.0352,-0.9715 -0.2695,-1.9254 -0.6882,-2.8025 -0.4188,-0.8772 -1.0131,-1.6587 -1.746,-2.2963 -0.733,-0.6375 -1.589,-1.1173 -2.515,-1.4098 -0.9259,-0.2924 -1.902,-0.3911 -2.8676,-0.29 -0.9656,0.101 -1.9002,0.3998 -2.7457,0.8776 -0.8455,0.4779 -1.5839,1.1246 -2.1694,1.9001 1.338,-0.8788 2.926,-1.2961 4.5225,-1.1884 1.5965,0.1078 3.1142,0.7347 4.3223,1.7854 1.2081,1.0507 2.0404,2.4678 2.3704,4.0356 0.33,1.5679 0.1396,3.2008 -0.5422,4.6503 z" />
  <path
     style="fill:url(#paint5_linear)"
     id="path857"
     fill="url(#paint5_linear)"
     d="m 10.853408,7.0012146 c 2.543,-1.88799 5.689,-2.77712 8.8426,-2.49912 3.1536,0.27799 6.0961,1.70381 8.2706,4.00767 -1.0849,-2.34456 -2.7684,-4.36089 -4.8807,-5.84531 -2.1122,-1.48443 -4.5783,-2.38436999 -7.1491,-2.60891099 -2.5708,-0.224542 -5.1552,0.234271 -7.4922298,1.33008099 -2.33701,1.09581 -4.34382,2.78981 -5.8177,4.91087 -1.47387,2.12107 -2.36261996,4.5940204 -2.57644996,7.1692204 -0.213826,2.5751 0.25483,5.1611 1.35863996,7.4968 1.1038,2.3356 2.80365,4.3382 4.92783,5.8055 2.12419,1.4672 4.5974098,2.3471 7.1700098,2.5508 -2.097,-0.8912 -3.9215998,-2.3213 -5.2892798,-4.1455 -1.36764,-1.8242 -2.22974,-3.9779 -2.49905,-6.243 -0.26931,-2.265 0.06372,-4.5612 0.9654,-6.6559 0.90168,-2.0948 2.34003,-3.9139004 4.1694298,-5.2732004 z" />
  <defs
     id="defs939">
    <radialGradient
       gradientTransform="matrix(10.5247,0,0,10.5388,18.491508,14.890615)"
       gradientUnits="userSpaceOnUse"
       r="1"
       cy="0"
       cx="0"
       id="paint0_radial">
      <stop
         id="stop859"
         stop-color="#1C1564"
         offset="0.31" />
      <stop
         id="stop861"
         stop-color="#1C1666"
         offset="0.32" />
      <stop
         id="stop863"
         stop-color="#262E97"
         offset="0.63" />
      <stop
         id="stop865"
         stop-color="#2C3CB6"
         offset="0.87" />
      <stop
         id="stop867"
         stop-color="#2E42C1"
         offset="1" />
    </radialGradient>
    <radialGradient
       gradientTransform="matrix(12.0586,0,0,10.6257,12.516808,18.687015)"
       gradientUnits="userSpaceOnUse"
       r="1"
       cy="0"
       cx="0"
       id="paint1_radial">
      <stop
         id="stop870"
         stop-color="#1C1564"
         offset="0.4" />
      <stop
         id="stop872"
         stop-color="#1C1666"
         offset="0.41" />
      <stop
         id="stop874"
         stop-color="#262E97"
         offset="0.68" />
      <stop
         id="stop876"
         stop-color="#2C3CB6"
         offset="0.89" />
      <stop
         id="stop878"
         stop-color="#2E42C1"
         offset="1" />
    </radialGradient>
    <linearGradient
       gradientTransform="translate(-0.99609176,-0.77978539)"
       gradientUnits="userSpaceOnUse"
       y2="16.5863"
       x2="30.9065"
       y1="3.6547899"
       x1="22.8249"
       id="paint2_linear">
      <stop
         id="stop881"
         stop-color="#1B1461" />
      <stop
         id="stop883"
         stop-color="#2E42C1"
         offset="1" />
    </linearGradient>
    <linearGradient
       gradientTransform="translate(-0.99609176,-0.77978539)"
       gradientUnits="userSpaceOnUse"
       y2="17.534"
       x2="31.607401"
       y1="12.4645"
       x1="8.1540098"
       id="paint3_linear">
      <stop
         id="stop886"
         stop-color="#46FFD7" />
      <stop
         id="stop888"
         stop-color="#3ECFE7"
         offset="0.28" />
      <stop
         id="stop890"
         stop-color="#3DC5E5"
         offset="0.3" />
      <stop
         id="stop892"
         stop-color="#399CDC"
         offset="0.39" />
      <stop
         id="stop894"
         stop-color="#367ED6"
         offset="0.47" />
      <stop
         id="stop896"
         stop-color="#346CD2"
         offset="0.54" />
      <stop
         id="stop898"
         stop-color="#3365D1"
         offset="0.59" />
      <stop
         id="stop900"
         stop-color="#3465D1"
         offset="0.6" />
      <stop
         id="stop902"
         stop-color="#6469CB"
         offset="0.69" />
      <stop
         id="stop904"
         stop-color="#8A6CC6"
         offset="0.78" />
      <stop
         id="stop906"
         stop-color="#A66EC2"
         offset="0.87" />
      <stop
         id="stop908"
         stop-color="#B670C0"
         offset="0.94" />
      <stop
         id="stop910"
         stop-color="#BC70BF"
         offset="1" />
    </linearGradient>
    <radialGradient
       gradientTransform="matrix(12.750999,7.8756077,-8.290484,13.422704,14.525508,15.670515)"
       gradientUnits="userSpaceOnUse"
       r="1"
       cy="0"
       cx="0"
       id="paint4_radial">
      <stop
         id="stop913"
         stop-color="#58FAD7" />
      <stop
         id="stop915"
         stop-color="#3468D2"
         offset="0.498401" />
      <stop
         id="stop917"
         stop-color="#B370C1"
         offset="1" />
    </radialGradient>
    <linearGradient
       gradientTransform="translate(-0.99609176,-0.77978539)"
       gradientUnits="userSpaceOnUse"
       y2="3.66326"
       x2="25.870001"
       y1="21.319"
       x1="5.61412"
       id="paint5_linear">
      <stop
         id="stop920"
         stop-color="#46FFD7" />
      <stop
         id="stop922"
         stop-color="#3ECFE7"
         offset="0.31" />
      <stop
         id="stop924"
         stop-color="#3365D1"
         offset="0.72" />
      <stop
         id="stop926"
         stop-color="#3765D0"
         offset="0.77" />
      <stop
         id="stop928"
         stop-color="#4566CF"
         offset="0.82" />
      <stop
         id="stop930"
         stop-color="#5A68CC"
         offset="0.87" />
      <stop
         id="stop932"
         stop-color="#796BC8"
         offset="0.92" />
      <stop
         id="stop934"
         stop-color="#A06EC3"
         offset="0.97" />
      <stop
         id="stop936"
         stop-color="#BC70BF"
         offset="1" />
    </linearGradient>
  </defs>
</svg>
